<?xml version="1.0" standalone="no"?>
<!DOCTYPE svg PUBLIC "-//W3C//DTD SVG 20010904//EN"
 "http://www.w3.org/TR/2001/REC-SVG-20010904/DTD/svg10.dtd">
<svg version="1.0" xmlns="http://www.w3.org/2000/svg"
 width="16.000000pt" height="16.000000pt" viewBox="0 0 16.000000 16.000000"
 preserveAspectRatio="xMidYMid meet">
<metadata>
Created by potrace 1.11, written by Peter Selinger 2001-2013
</metadata>
<g transform="translate(0.000000,16.000000) scale(0.005128,-0.005128)"
fill="#000000" stroke="none">
<path d="M0 1560 l0 -1560 1560 0 1560 0 0 1560 0 1560 -1560 0 -1560 0 0
-1560z m1590 1290 c5 0 18 -10 30 -22 19 -21 20 -34 20 -240 l0 -218 -80 0
-80 0 0 208 c0 114 3 216 6 228 6 23 61 55 82 48 8 -2 18 -4 22 -4z m-527
-157 c-2 -7 2 -12 9 -10 15 3 219 -343 213 -361 -3 -7 0 -10 5 -7 6 3 10 3 10
-2 0 -4 -30 -25 -67 -46 -63 -36 -68 -37 -80 -21 -7 10 -58 98 -114 196 -108
191 -112 205 -66 248 24 23 94 25 90 3z m1092 -15 c19 -23 25 -38 20 -56 -5
-19 -205 -373 -220 -390 -5 -5 -135 71 -135 79 0 3 25 51 57 105 31 55 78 137
105 184 54 96 69 110 114 110 24 0 39 -8 59 -32z m-1425 -406 c103 -59 284
-164 288 -167 7 -6 -73 -135 -83 -135 -5 0 -26 10 -45 22 -19 11 -98 57 -175
101 -77 44 -146 87 -152 95 -28 35 -10 106 30 122 37 15 49 11 137 -38z m1811
19 c55 -56 37 -99 -66 -156 -27 -16 -103 -59 -167 -97 -64 -37 -121 -68 -126
-68 -10 0 -82 115 -82 131 0 5 8 13 18 16 9 4 61 33 116 66 148 89 239 137
259 137 10 0 32 -13 48 -29z m-791 -97 c179 -73 302 -229 331 -419 18 -125 -1
-214 -81 -369 -83 -159 -123 -265 -158 -421 -23 -98 -36 -134 -52 -147 -20
-16 -46 -18 -227 -18 -121 0 -212 4 -224 10 -27 15 -44 55 -59 135 -21 114
-67 241 -140 387 -94 185 -110 236 -110 346 0 209 110 389 293 476 97 47 146
56 268 51 72 -4 111 -11 159 -31z m18 -1416 c16 -16 15 -53 -2 -67 -9 -8 -75
-11 -217 -9 l-204 3 -3 34 c-2 20 2 37 10 42 22 14 402 11 416 -3z m0 -110
c16 -16 15 -53 -2 -67 -9 -8 -75 -11 -217 -9 l-204 3 -3 34 c-2 20 2 37 10 42
22 14 402 11 416 -3z m8 -133 c14 -55 13 -56 -218 -53 l-213 3 -3 23 c-8 52
-8 52 217 52 l211 0 6 -25z m-76 -103 c0 -20 -31 -52 -67 -71 -56 -28 -176 -4
-208 43 -31 43 -24 46 130 46 134 0 145 -1 145 -18z"/>
</g>
</svg>
