<?xml version="1.0" encoding="UTF-8" standalone="no"?>
<!-- Created with Inkscape (http://www.inkscape.org/) -->

<svg
   xmlns:dc="http://purl.org/dc/elements/1.1/"
   xmlns:cc="http://creativecommons.org/ns#"
   xmlns:rdf="http://www.w3.org/1999/02/22-rdf-syntax-ns#"
   xmlns:svg="http://www.w3.org/2000/svg"
   xmlns="http://www.w3.org/2000/svg"
   xmlns:sodipodi="http://sodipodi.sourceforge.net/DTD/sodipodi-0.dtd"
   xmlns:inkscape="http://www.inkscape.org/namespaces/inkscape"
   id="svg9248"
   version="1.1"
   inkscape:version="0.91 r13725"
   width="256"
   height="256"
   viewBox="0 0 256 256"
   sodipodi:docname="elevatesvg.svg">
  <metadata
     id="metadata9254">
    <rdf:RDF>
      <cc:Work
         rdf:about="">
        <dc:format>image/svg+xml</dc:format>
        <dc:type
           rdf:resource="http://purl.org/dc/dcmitype/StillImage" />
        <dc:title></dc:title>
      </cc:Work>
    </rdf:RDF>
  </metadata>
  <defs
     id="defs9252" />
  <sodipodi:namedview
     pagecolor="#ffffff"
     bordercolor="#666666"
     borderopacity="1"
     objecttolerance="10"
     gridtolerance="10"
     guidetolerance="10"
     inkscape:pageopacity="0"
     inkscape:pageshadow="2"
     inkscape:window-width="640"
     inkscape:window-height="480"
     id="namedview9250"
     showgrid="false"
     inkscape:zoom="0.921875"
     inkscape:cx="128"
     inkscape:cy="128"
     inkscape:window-x="0"
     inkscape:window-y="0"
     inkscape:window-maximized="0"
     inkscape:current-layer="svg9248" />
  <path
     inkscape:connector-curvature="0"
     id="path9266"
     d="m 42.932603,255.34069 c -3.00964,-3.00965 -5.00262,-8.56231 -5.01177,-13.96336 -0.0121,-7.11364 3.57952,-19.63614 16.60368,-57.89099 7.45577,-21.89927 22.70969,-67.11077 33.89758,-100.469999 11.1879,-33.359232 21.114007,-62.159232 22.058017,-64 10.81606,-21.0906114 23.05879,-21.0804754 33.88478,0.02805 0.952,1.856198 10.64693,29.981198 21.54429,62.5 10.89737,32.518809 26.38177,78.549259 34.40978,102.289899 8.36468,24.73626 15.08555,46.31129 15.74216,50.53475 1.60299,10.31086 0.53726,16.31732 -3.63559,20.49017 -2.99604,2.99604 -3.86561,3.30935 -9.16028,3.30051 -7.68551,-0.0128 -11.51254,-1.85934 -37.66651,-18.17378 -11.65092,-7.26765 -24.51981,-15.11966 -28.59753,-17.4489 l -7.41405,-4.23499 -4.95336,2.51006 c -2.72434,1.38053 -16.26302,9.30727 -30.085947,17.61497 -29.46347,17.70781 -33.72283,19.6859 -42.45952,19.71867 -5.62762,0.0211 -6.63959,-0.28892 -9.15573,-2.80506 z"
     style="fill:#2dcb70" />
  <path
     style="fill:#000000"
     d=""
     id="path9262"
     inkscape:connector-curvature="0" />
  <path
     style="fill:#000000"
     d=""
     id="path9260"
     inkscape:connector-curvature="0" />
  <path
     style="fill:#000000"
     d=""
     id="path9258"
     inkscape:connector-curvature="0" />
</svg>
